<?xml version="1.0" encoding="UTF-8"?>
<svg version="1.1" xmlns="http://www.w3.org/2000/svg" width="405" height="137">
<path d="M0 0 C3.08674818 -0.31630043 5.96857107 -0.44393611 9.05859375 -0.43359375 C10.40873314 -0.44145653 10.40873314 -0.44145653 11.78614807 -0.44947815 C13.69181282 -0.45590815 15.59751721 -0.45454874 17.50317383 -0.44604492 C20.422756 -0.43754294 23.34037738 -0.46626887 26.25976562 -0.49804688 C28.10937441 -0.49965911 29.95898667 -0.49908094 31.80859375 -0.49609375 C33.12119423 -0.51294472 33.12119423 -0.51294472 34.46031189 -0.53013611 C40.40426391 -0.46164918 40.40426391 -0.46164918 43.04248047 1.58276367 C44.33954082 4.85716309 44.4395497 7.65002525 44.51171875 11.171875 C44.52966995 11.8542926 44.54762115 12.53671021 44.56611633 13.23980713 C44.62010383 15.4098094 44.65407583 17.57959325 44.6875 19.75 C44.72068352 21.22529074 44.75517415 22.70055269 44.79101562 24.17578125 C44.87582158 27.78364427 44.94268837 31.39158362 45 35 C47.93879037 36.46939518 50.59350953 36.14686078 53.87109375 36.17578125 C55.26368706 36.19897511 56.65626525 36.22309227 58.04882812 36.24804688 C60.24562774 36.28319764 62.44186905 36.31252665 64.63891602 36.32592773 C66.75866228 36.34138992 68.87677768 36.38157612 70.99609375 36.42578125 C72.90152954 36.44765503 72.90152954 36.44765503 74.84545898 36.4699707 C78 37 78 37 79.9128418 38.5144043 C81.47566877 42.08753284 81.4284093 45.51312553 81.3984375 49.34375 C81.40130768 50.14985718 81.40417786 50.95596436 81.40713501 51.78649902 C81.40917292 53.48771875 81.40366214 55.18896205 81.39111328 56.89013672 C81.37505499 59.49109391 81.39097043 62.09049727 81.41015625 64.69140625 C81.40817377 66.34635759 81.40432999 68.00130796 81.3984375 69.65625 C81.40451019 70.43238647 81.41058289 71.20852295 81.4168396 72.00817871 C81.37570479 75.17297473 81.17998949 77.62726614 79.79418945 80.49707031 C77.39178787 82.50947801 76.0039993 82.46252022 72.89453125 82.390625 C71.42016602 82.37128906 71.42016602 82.37128906 69.91601562 82.3515625 C68.89185547 82.31804687 67.86769531 82.28453125 66.8125 82.25 C65.77673828 82.23195313 64.74097656 82.21390625 63.67382812 82.1953125 C61.11495716 82.14814437 58.55794158 82.08234057 56 82 C55.47007619 79.23062417 54.9507542 76.45996921 54.4375 73.6875 C54.28603516 72.90181641 54.13457031 72.11613281 53.97851562 71.30664062 C53.83994141 70.54931641 53.70136719 69.79199219 53.55859375 69.01171875 C53.42767334 68.31522217 53.29675293 67.61872559 53.16186523 66.90112305 C53 65 53 65 54 62 C53.34 62 52.68 62 52 62 C51.34 63.32 50.68 64.64 50 66 C47.84642973 63.8852328 45.79974622 61.70933951 43.8125 59.4375 C43.28269531 58.83808594 42.75289063 58.23867187 42.20703125 57.62109375 C41 56 41 56 41 54 C39.515 54.495 39.515 54.495 38 55 C38.3609375 55.48210937 38.721875 55.96421875 39.09375 56.4609375 C39.5578125 57.09257813 40.021875 57.72421875 40.5 58.375 C41.19609375 59.31472656 41.19609375 59.31472656 41.90625 60.2734375 C43 62 43 62 43 64 C39.05860922 62.33248852 36.2107188 59.77289351 33 57 C32.01 57.495 32.01 57.495 31 58 C33.97 60.97 36.94 63.94 40 67 C39.67 67.66 39.34 68.32 39 69 C38.45730469 68.50628906 37.91460937 68.01257813 37.35546875 67.50390625 C36.64003906 66.86324219 35.92460938 66.22257812 35.1875 65.5625 C34.47980469 64.92441406 33.77210937 64.28632812 33.04296875 63.62890625 C31.00103848 61.80913988 31.00103848 61.80913988 28 61 C32.03518174 65.79583222 32.03518174 65.79583222 36.375 70.3125 C38 72 38 72 38 74 C34.08788267 72.84414715 31.1254959 71.64465038 28 69 C27.67 69.66 27.34 70.32 27 71 C27.57878906 71.25394531 28.15757813 71.50789063 28.75390625 71.76953125 C31.25096807 73.13748685 32.93426901 74.66840184 34.9375 76.6875 C35.58589844 77.33074219 36.23429687 77.97398438 36.90234375 78.63671875 C37.59457031 79.41660156 38.28679687 80.19648437 39 81 C39.44553223 81.45181641 39.89106445 81.90363281 40.35009766 82.36914062 C45.21979829 87.97509981 44.67403108 94.01345726 44.5 101.125 C44.50386719 102.87490234 44.50386719 102.87490234 44.5078125 104.66015625 C44.38462334 115.41456995 44.38462334 115.41456995 41 119 C37.94048915 119.73722116 34.94184963 119.65245471 31.80859375 119.59375 C30.9075441 119.59379028 30.00649445 119.59383057 29.07814026 119.59387207 C27.17417421 119.58851183 25.2702091 119.57090753 23.36645508 119.54199219 C20.44479147 119.50010454 17.52542902 119.5009241 14.60351562 119.5078125 C12.75519224 119.49732153 10.90688079 119.48438392 9.05859375 119.46875 C8.18150253 119.46854858 7.30441132 119.46834717 6.40074158 119.46813965 C3.94311523 119.41992188 3.94311523 119.41992188 0 119 C-3.31684782 114.02472827 -2.36902279 108.34571366 -2.375 102.5 C-2.39949219 101.27023438 -2.42398438 100.04046875 -2.44921875 98.7734375 C-2.48456823 87.6736993 -0.60710163 79.08718247 7.203125 70.9765625 C9.12777136 68.85945151 10.59786718 66.66664833 12.125 64.25 C14.36063256 60.76768763 16.60240982 58.42685013 20 56 C20.495 55.01 20.495 55.01 21 54 C21.66 54 22.32 54 23 54 C23 53.01 23 52.02 23 51 C22.45730469 51.433125 21.91460937 51.86625 21.35546875 52.3125 C20.64003906 52.869375 19.92460938 53.42625 19.1875 54 C18.47980469 54.556875 17.77210937 55.11375 17.04296875 55.6875 C15 57 15 57 12 57 C13.45281065 51.67302761 17.08111378 48.63597198 21 45 C20.34 44.34 19.68 43.68 19 43 C18.79375 43.556875 18.5875 44.11375 18.375 44.6875 C16.44999226 47.92501302 13.96149098 49.68231141 11 52 C10.01 51.505 10.01 51.505 9 51 C13.455 46.05 13.455 46.05 18 41 C17.67 40.34 17.34 39.68 17 39 C13.7 41.97 10.4 44.94 7 48 C6.67 47.01 6.34 46.02 6 45 C6.99609375 43.17578125 6.99609375 43.17578125 8.4375 41.3125 C8.91058594 40.68988281 9.38367187 40.06726562 9.87109375 39.42578125 C10.24363281 38.95527344 10.61617187 38.48476563 11 38 C10.01 38 9.02 38 8 38 C6.40804795 39.8961684 6.40804795 39.8961684 5 42.3125 C3.20553913 45.21447969 1.51744919 47.68484583 -1 50 C-1.268125 49.360625 -1.53625 48.72125 -1.8125 48.0625 C-2.88667752 45.66868314 -2.88667752 45.66868314 -6 45 C-5.67 45.66 -5.34 46.32 -5 47 C-4.35262227 59.94755465 -6.60939807 70.71469289 -13 82 C-16.95819611 82.08678303 -20.91614934 82.14031733 -24.875 82.1875 C-26.00292969 82.21263672 -27.13085938 82.23777344 -28.29296875 82.26367188 C-29.36933594 82.27333984 -30.44570313 82.28300781 -31.5546875 82.29296875 C-32.54968262 82.3086792 -33.54467773 82.32438965 -34.56982422 82.34057617 C-35.37178223 82.22818604 -36.17374023 82.1157959 -37 82 C-39.60055502 78.09916748 -39.28773985 74.80522315 -39.265625 70.28125 C-39.26753845 69.42696411 -39.2694519 68.57267822 -39.27142334 67.69250488 C-39.27278387 65.88695989 -39.26909664 64.08140508 -39.26074219 62.27587891 C-39.25004071 59.5105189 -39.26064184 56.74580853 -39.2734375 53.98046875 C-39.27211588 52.22656106 -39.26955344 50.47265378 -39.265625 48.71875 C-39.26967346 47.89056763 -39.27372192 47.06238525 -39.27789307 46.20910645 C-39.24589123 42.2958845 -39.2193324 40.32899859 -37 37 C-33.8671875 36.59936523 -33.8671875 36.59936523 -29.875 36.55859375 C-29.1722998 36.54538589 -28.46959961 36.53217804 -27.74560547 36.51856995 C-25.49703012 36.4776076 -23.24886455 36.45598448 -21 36.4375 C-18.75126013 36.41373556 -16.50290777 36.38564972 -14.25439453 36.34571838 C-12.21402624 36.31014587 -10.17340154 36.29033332 -8.1328125 36.27124023 C-4.9009392 36.32992444 -4.9009392 36.32992444 -3 34 C-2.65977923 30.84306241 -2.65977923 30.84306241 -2.65625 27.12890625 C-2.6416272 26.45077377 -2.62700439 25.7726413 -2.61193848 25.07395935 C-2.56538443 22.90353277 -2.53121925 20.73319814 -2.5 18.5625 C-2.45886475 15.70929602 -2.40517991 12.85673734 -2.34375 10.00390625 C-2.32505859 8.73361572 -2.30636719 7.4633252 -2.28710938 6.15454102 C-2 3 -2 3 0 0 Z " fill="#FC3131" transform="translate(47,9)"/>
<path d="M0 0 C8 0 8 0 9.82617188 1.56054688 C10.20322266 2.27275391 10.58027344 2.98496094 10.96875 3.71875 C11.39414062 4.48574219 11.81953125 5.25273438 12.2578125 6.04296875 C12.66773438 6.85378906 13.07765625 7.66460937 13.5 8.5 C13.94085938 9.31082031 14.38171875 10.12164062 14.8359375 10.95703125 C15.91812034 12.95671693 16.96280292 14.97661552 18 17 C18.33 11.39 18.66 5.78 19 0 C20.98 0 22.96 0 25 0 C26.80279191 1.80279191 26.13036605 4.54047701 26.1328125 6.96875 C26.13474609 8.78439453 26.13474609 8.78439453 26.13671875 10.63671875 C26.13285156 11.91160156 26.12898438 13.18648437 26.125 14.5 C26.13080078 16.41232422 26.13080078 16.41232422 26.13671875 18.36328125 C26.13542969 19.57371094 26.13414062 20.78414062 26.1328125 22.03125 C26.13168457 23.15080078 26.13055664 24.27035156 26.12939453 25.42382812 C26 28 26 28 25 29 C22.03 29 19.06 29 16 29 C13.03 23.72 10.06 18.44 7 13 C6.67 18.28 6.34 23.56 6 29 C4.02 29 2.04 29 0 29 C0 19.43 0 9.86 0 0 Z " fill="#000000" transform="translate(333,54)"/>
<path d="M0 0 C3.76292473 1.60124457 5.84097382 3.54555811 8 7 C9.82486599 12.47459798 9.71726665 18.0275167 7.75 23.4375 C5.25739939 27.08737947 3.1702572 28.60991427 -1 30 C-6.58635614 30.36631844 -10.20724794 30.23232115 -15 27 C-18.74672909 22.73648069 -18.99144203 17.47709928 -19 12 C-18.29111201 7.60489448 -17.73199854 5.69539861 -14.5 2.625 C-9.6734435 -0.51226172 -5.67910889 -0.50162476 0 0 Z M-9.66015625 7.71484375 C-11.95590805 11.6303388 -11.64923629 15.60124178 -11 20 C-9.59912251 22.8213337 -9.59912251 22.8213337 -7 24 C-3.89706707 24.24677006 -3.89706707 24.24677006 -1 23 C1.26193527 20.66509908 1.97295846 19.02757861 2.05859375 15.7734375 C1.77192933 11.19277766 1.77192933 11.19277766 -0.3671875 7.25390625 C-2.0612237 5.74175913 -2.0612237 5.74175913 -5 5.5625 C-8.04217842 5.69437025 -8.04217842 5.69437025 -9.66015625 7.71484375 Z " fill="#010101" transform="translate(228,54)"/>
<path d="M0 0 C1.91655574 -0.03220627 3.83326842 -0.05516034 5.75 -0.07421875 C7.35101563 -0.09488403 7.35101563 -0.09488403 8.984375 -0.1159668 C14.37331534 0.09126658 17.64129421 1.53402797 21.375 5.5625 C24.40326433 10.10489649 24.4895264 13.62427489 24 19 C22.21672186 24.2507634 19.81675646 26.36304884 15 29 C12.21417426 29.28139654 9.87643745 29.38863832 7.125 29.25 C6.43664062 29.23195313 5.74828125 29.21390625 5.0390625 29.1953125 C3.3587619 29.14863748 1.67918837 29.07690939 0 29 C-1.101173 25.69648101 -1.03109831 23.48612828 -0.87890625 20.01953125 C-0.83056641 18.85615234 -0.78222656 17.69277344 -0.73242188 16.49414062 C-0.67634766 15.27919922 -0.62027344 14.06425781 -0.5625 12.8125 C-0.51029297 11.58595703 -0.45808594 10.35941406 -0.40429688 9.09570312 C-0.27451599 6.06354982 -0.13954569 3.03171706 0 0 Z M7 6 C7 11.94 7 17.88 7 24 C13.65625673 22.75977732 13.65625673 22.75977732 16 19.8125 C17.30608489 16.13913626 16.90517165 13.75994379 16 10 C15.34 9.01 14.68 8.02 14 7 C11.69 6.67 9.38 6.34 7 6 Z " fill="#010101" transform="translate(177,54)"/>
<path d="M0 0 C2.31 0 4.62 0 7 0 C7.33 3.3 7.66 6.6 8 10 C8.4846875 9.278125 8.969375 8.55625 9.46875 7.8125 C14.87852238 0.32204594 14.87852238 0.32204594 18.3125 -0.6640625 C20.5 -0.625 20.5 -0.625 24 0 C22.50923566 3.2826932 20.61379679 5.93077441 18.375 8.75 C17.74335938 9.54921875 17.11171875 10.3484375 16.4609375 11.171875 C15.97882813 11.77515625 15.49671875 12.3784375 15 13 C15.48210937 13.81984375 15.96421875 14.6396875 16.4609375 15.484375 C17.40839844 17.10085937 17.40839844 17.10085937 18.375 18.75 C19.00148438 19.81734375 19.62796875 20.8846875 20.2734375 21.984375 C21.59772663 24.29738678 22.84636846 26.59951417 24 29 C18.97602074 29.88139987 18.97602074 29.88139987 16 29 C13.74287888 26.55407027 12.07867735 24.02653232 10.34765625 21.1875 C9.68056641 20.1046875 9.68056641 20.1046875 9 19 C8.67 19 8.34 19 8 19 C7.67 22.3 7.34 25.6 7 29 C4.69 29 2.38 29 0 29 C0 19.43 0 9.86 0 0 Z " fill="#010101" transform="translate(369,54)"/>
<path d="M0 0 C2.3046875 1.0234375 2.3046875 1.0234375 4 2 C3.34 3.98 2.68 5.96 2 8 C1.38511719 7.89300781 0.77023437 7.78601562 0.13671875 7.67578125 C-0.67152344 7.55589844 -1.47976563 7.43601562 -2.3125 7.3125 C-3.51326172 7.12107422 -3.51326172 7.12107422 -4.73828125 6.92578125 C-7.06067815 6.7858207 -7.06067815 6.7858207 -8.7421875 8.3046875 C-10.62103569 10.8370481 -10.81609427 12.87360259 -11 16 C-10.1552144 19.28861095 -10.1552144 19.28861095 -9 22 C-4.95858806 22.63394697 -1.0934693 23.12404452 3 23 C3 24.65 3 26.3 3 28 C-0.74277792 30.49518528 -4.66183577 30.53495667 -9 30 C-12.4429806 28.76572393 -14.40339437 27.67889606 -16.8125 24.9375 C-19.09319693 19.29577601 -19.79086259 13.49215377 -17.9375 7.625 C-14.44036117 -0.08744011 -7.71999517 -1.09557687 0 0 Z " fill="#010101" transform="translate(264,54)"/>
<path d="M0 0 C2.31 0 4.62 0 7 0 C8.65 2.97 10.3 5.94 12 9 C14.95724036 5.35587053 14.95724036 5.35587053 16.25 2.25 C17.11625 1.13625 17.11625 1.13625 18 0 C21.6875 -0.3125 21.6875 -0.3125 25 0 C24.41848262 4.37753362 22.75684696 7.36050528 20.5 11.125 C17.13203847 17.16529092 15.90347573 22.1191988 16 29 C12.86650268 30.04449911 12.01031744 29.93423645 9 29 C9.020625 28.37996094 9.04125 27.75992188 9.0625 27.12109375 C8.8870588 19.5880873 6.51065986 14.41230938 2.79492188 8.04077148 C0 3.2450545 0 3.2450545 0 0 Z " fill="#010101" transform="translate(300,54)"/>
<path d="M0 0 C2.64 0 5.28 0 8 0 C8.33 1.65 8.66 3.3 9 5 C10.98 5.66 12.96 6.32 15 7 C15 9.31 15 11.62 15 14 C13.02 14.66 11.04 15.32 9 16 C8.67 17.65 8.34 19.3 8 21 C1.84765625 21.09765625 1.84765625 21.09765625 0 21 C-1 20 -1 20 -1.0625 17.4375 C-1.041875 16.633125 -1.02125 15.82875 -1 15 C-1.804375 15.020625 -2.60875 15.04125 -3.4375 15.0625 C-6 15 -6 15 -7 14 C-7.125 10.5 -7.125 10.5 -7 7 C-6 6 -6 6 -3.4375 5.9375 C-2.2309375 5.9684375 -2.2309375 5.9684375 -1 6 C-0.67 4.02 -0.34 2.04 0 0 Z " fill="#F53131" transform="translate(134,9)"/>
<path d="M0 0 C0.33 0 0.66 0 1 0 C1.33 11.22 1.66 22.44 2 34 C2.66 34 3.32 34 4 34 C4 33.34 4 32.68 4 32 C7.3 32 10.6 32 14 32 C14.66 33.98 15.32 35.96 16 38 C13.69 40.31 11.38 42.62 9 45 C8.67 44.01 8.34 43.02 8 42 C8.99609375 40.17578125 8.99609375 40.17578125 10.4375 38.3125 C10.91058594 37.68988281 11.38367187 37.06726562 11.87109375 36.42578125 C12.24363281 35.95527344 12.61617187 35.48476563 13 35 C12.01 35 11.02 35 10 35 C8.40804795 36.8961684 8.40804795 36.8961684 7 39.3125 C5.20553913 42.21447969 3.51744919 44.68484583 1 47 C0.731875 46.360625 0.46375 45.72125 0.1875 45.0625 C-0.88667752 42.66868314 -0.88667752 42.66868314 -4 42 C-3.505 44.475 -3.505 44.475 -3 47 C-3.66 47 -4.32 47 -5 47 C-5.99 43.535 -5.99 43.535 -7 40 C-5.515 39.505 -5.515 39.505 -4 39 C-4 38.01 -4 37.02 -4 36 C-13.24 36 -22.48 36 -32 36 C-32.99 37.98 -33.98 39.96 -35 42 C-35.66 42 -36.32 42 -37 42 C-36.125 35.125 -36.125 35.125 -35 34 C-32.64986644 33.8648868 -30.32485727 33.78956677 -27.97265625 33.75390625 C-26.52668658 33.72097115 -25.08072319 33.68775945 -23.63476562 33.65429688 C-21.3458281 33.606831 -19.05691667 33.56240436 -16.76782227 33.52319336 C-14.56499455 33.48355623 -12.36269499 33.43199444 -10.16015625 33.37890625 C-9.47365494 33.3704921 -8.78715363 33.36207794 -8.07984924 33.35340881 C-4.09579267 33.3455969 -4.09579267 33.3455969 -1 31 C-0.62653332 27.79461597 -0.62653332 27.79461597 -0.5859375 24.0234375 C-0.56657135 23.33819 -0.5472052 22.6529425 -0.5272522 21.94692993 C-0.46743169 19.75641356 -0.42106244 17.5658447 -0.375 15.375 C-0.33682237 13.89060198 -0.29777076 12.40622616 -0.2578125 10.921875 C-0.16172916 7.28145315 -0.07770718 3.64086564 0 0 Z " fill="#EE3638" transform="translate(45,12)"/>
<path d="M0 0 C2.31 0 4.62 0 7 0 C7 7.92 7 15.84 7 24 C10.96 24 14.92 24 19 24 C19 25.65 19 27.3 19 29 C12.73 29 6.46 29 0 29 C0 19.43 0 9.86 0 0 Z " fill="#000000" transform="translate(276,54)"/>
<path d="M0 0 C0.33 0 0.66 0 1 0 C1 8.91 1 17.82 1 27 C1.66 27 2.32 27 3 27 C3 27.99 3 28.98 3 30 C15.21 30 27.42 30 40 30 C40 29.34 40 28.68 40 28 C39.34 27.67 38.68 27.34 38 27 C38.66 27 39.32 27 40 27 C40.33 26.34 40.66 25.68 41 25 C41 25.66 41 26.32 41 27 C42.32 27 43.64 27 45 27 C44.34 28.32 43.68 29.64 43 31 C37.19761976 31.07401964 31.39551278 31.12853989 25.59277344 31.16479492 C23.61778987 31.17990462 21.64283996 31.20039328 19.66796875 31.22631836 C16.83324894 31.26260619 13.99897174 31.27970416 11.1640625 31.29296875 C10.27756012 31.30845261 9.39105774 31.32393646 8.47769165 31.33988953 C7.65699188 31.34011612 6.83629211 31.34034271 5.99072266 31.34057617 C5.26680328 31.34723801 4.54288391 31.35389984 3.79702759 31.36076355 C2 31 2 31 0 28 C-0.22705078 25.08911133 -0.22705078 25.08911133 -0.1953125 21.58203125 C-0.18886719 20.32841797 -0.18242188 19.07480469 -0.17578125 17.78320312 C-0.15902344 16.47287109 -0.14226563 15.16253906 -0.125 13.8125 C-0.11496639 12.47722013 -0.1058412 11.14193311 -0.09765625 9.80664062 C-0.07405292 6.53757985 -0.04112594 3.26887972 0 0 Z " fill="#E43535" transform="translate(45,97)"/>
<path d="M0 0 C2.5 2.5 2.5 2.5 5 5 C5.9075 5.86625 6.815 6.7325 7.75 7.625 C10 10 10 10 11 13 C7.08788267 11.84414715 4.1254959 10.64465038 1 8 C0.34 8.66 -0.32 9.32 -1 10 C-1.28875 9.38125 -1.5775 8.7625 -1.875 8.125 C-2.93720042 5.86674235 -2.93720042 5.86674235 -5 4 C-3.68 4 -2.36 4 -1 4 C-0.67 2.68 -0.34 1.36 0 0 Z " fill="#F43534" transform="translate(74,70)"/>
<path d="M0 0 C0.9375 2.0625 0.9375 2.0625 1 5 C-1.07391145 7.62767838 -3.47290372 9.81321095 -6 12 C-6.33 11.01 -6.66 10.02 -7 9 C-6.00390625 7.17578125 -6.00390625 7.17578125 -4.5625 5.3125 C-4.08941406 4.68988281 -3.61632813 4.06726562 -3.12890625 3.42578125 C-2.75636719 2.95527344 -2.38382813 2.48476563 -2 2 C-5.12498166 1.6626154 -5.12498166 1.6626154 -7.1875 4 C-7.785625 4.66 -8.38375 5.32 -9 6 C-8.67 4.02 -8.34 2.04 -8 0 C-4.71023192 -1.09658936 -3.28696233 -0.79953138 0 0 Z " fill="#E43B3C" transform="translate(60,45)"/>
<path d="M0 0 C0.33 0.66 0.66 1.32 1 2 C0.67 2.66 0.34 3.32 0 4 C0.66 4.66 1.32 5.32 2 6 C0.73608512 7.00873016 -0.53640883 8.00671822 -1.8125 9 C-2.87404297 9.8353125 -2.87404297 9.8353125 -3.95703125 10.6875 C-6 12 -6 12 -9 12 C-7.54718935 6.67302761 -3.91888622 3.63597198 0 0 Z " fill="#E23B3D" transform="translate(68,54)"/>
<path d="M0 0 C0.33 0 0.66 0 1 0 C1 10.89 1 21.78 1 33 C-0.32 33.66 -1.64 34.32 -3 35 C-2.68289062 33.79472656 -2.36578125 32.58945313 -2.0390625 31.34765625 C-0.64783427 25.08712923 -0.5447573 18.82815506 -0.375 12.4375 C-0.33632812 11.23802734 -0.29765625 10.03855469 -0.2578125 8.80273438 C-0.16429541 5.86863575 -0.07854365 2.93453116 0 0 Z " fill="#E93130" transform="translate(126,56)"/>
<path d="M0 0 C0.75 1.6875 0.75 1.6875 1 4 C-1.24452435 7.49148232 -3.25218724 9.319946 -7 11 C-7.33 11.66 -7.66 12.32 -8 13 C-7.34 13.33 -6.68 13.66 -6 14 C-6.66 14 -7.32 14 -8 14 C-8 14.66 -8 15.32 -8 16 C-9.65 16.66 -11.3 17.32 -13 18 C-11.59163827 13.51884905 -9.36881776 11.20839787 -6 8 C-5.278125 7.071875 -4.55625 6.14375 -3.8125 5.1875 C-3.214375 4.465625 -2.61625 3.74375 -2 3 C-1.34 3 -0.68 3 0 3 C0 2.01 0 1.02 0 0 Z " fill="#EA3A3B" transform="translate(70,60)"/>
<path d="M0 0 C1.32 1.32 2.64 2.64 4 4 C3.67 4.66 3.34 5.32 3 6 C2.01 5.34 1.02 4.68 0 4 C-0.20625 4.556875 -0.4125 5.11375 -0.625 5.6875 C-2.55000774 8.92501302 -5.03850902 10.68231141 -8 13 C-8.66 12.67 -9.32 12.34 -10 12 C-9.36191406 11.30132812 -8.72382812 10.60265625 -8.06640625 9.8828125 C-7.24011719 8.97273438 -6.41382813 8.06265625 -5.5625 7.125 C-4.73878906 6.22007813 -3.91507813 5.31515625 -3.06640625 4.3828125 C-0.99092058 2.18862073 -0.99092058 2.18862073 0 0 Z " fill="#E34342" transform="translate(66,48)"/>
<path d="M0 0 C3.16717283 1.58358642 4.73268318 2.45263699 6.3125 5.6875 C6.6528125 6.8321875 6.6528125 6.8321875 7 8 C2.56909529 6.79157144 0.01887244 5.48331435 -3 2 C-2.01 2 -1.02 2 0 2 C0 1.34 0 0.68 0 0 Z " fill="#DC3D3F" transform="translate(78,75)"/>
<path d="M0 0 C7.06090159 0.2393526 7.06090159 0.2393526 9.64453125 2.33203125 C13 6.30637608 13 6.30637608 13 9 C10.22712279 7.82685964 8.17638712 6.34589066 5.9375 4.375 C3.24076887 1.68563893 3.24076887 1.68563893 0 2 C0 1.34 0 0.68 0 0 Z " fill="#D54648" transform="translate(77,64)"/>
<path d="M0 0 C-0.60183749 2.02045442 -1.27306096 4.02111039 -2 6 C-2.99 6.495 -2.99 6.495 -4 7 C-4.268125 6.38125 -4.53625 5.7625 -4.8125 5.125 C-5.95556848 2.7004767 -5.95556848 2.7004767 -9 1 C-5.64919071 -1.10976881 -3.77897651 -1.0497157 0 0 Z " fill="#E03A38" transform="translate(50,52)"/>
<path d="M0 0 C2.97 0.495 2.97 0.495 6 1 C6 1.66 6 2.32 6 3 C6.66 3 7.32 3 8 3 C8.33 2.34 8.66 1.68 9 1 C9 2.32 9 3.64 9 5 C6.36 5 3.72 5 1 5 C0.67 3.35 0.34 1.7 0 0 Z " fill="#E83336" transform="translate(133,25)"/>
<path d="M0 0 C1.1055189 0.93590504 2.20935453 1.87379858 3.3125 2.8125 C3.92738281 3.33457031 4.54226562 3.85664062 5.17578125 4.39453125 C6.85424679 5.87172469 8.43882034 7.40039131 10 9 C9.67 9.66 9.34 10.32 9 11 C7.49117739 9.73965413 5.99315956 8.46636351 4.5 7.1875 C3.6646875 6.47980469 2.829375 5.77210937 1.96875 5.04296875 C0 3 0 3 0 0 Z " fill="#CF484C" transform="translate(77,67)"/>
<path d="M0 0 C1.98 0.495 1.98 0.495 4 1 C4.66 3.31 5.32 5.62 6 8 C5.01 7.34 4.02 6.68 3 6 C3 5.34 3 4.68 3 4 C1.68 4 0.36 4 -1 4 C-0.67 2.68 -0.34 1.36 0 0 Z " fill="#EA3939" transform="translate(85,59)"/>
<path d="M0 0 C0.66 1.32 1.32 2.64 2 4 C-0.31 5.98 -2.62 7.96 -5 10 C-3.96532992 5.8613197 -2.43050464 3.44974852 0 0 Z " fill="#CC4846" transform="translate(58,47)"/>
<path d="M0 0 C0.66 0 1.32 0 2 0 C2 2.31 2 4.62 2 7 C0.02 7.99 0.02 7.99 -2 9 C-1.34 6.03 -0.68 3.06 0 0 Z " fill="#E8353D" transform="translate(125,82)"/>
<path d="M0 0 C0.33 0.99 0.66 1.98 1 3 C-0.65 4.65 -2.3 6.3 -4 8 C-4.66 7.67 -5.32 7.34 -6 7 C-4.02 4.69 -2.04 2.38 0 0 Z " fill="#E73939" transform="translate(56,78)"/>
<path d="" fill="#FFFFFF" transform="translate(0,0)"/>
<path d="" fill="#FFFFFF" transform="translate(0,0)"/>
<path d="" fill="#FFFFFF" transform="translate(0,0)"/>
<path d="" fill="#FFFFFF" transform="translate(0,0)"/>
<path d="" fill="#FFFFFF" transform="translate(0,0)"/>
<path d="" fill="#FFFFFF" transform="translate(0,0)"/>
<path d="" fill="#FFFFFF" transform="translate(0,0)"/>
<path d="" fill="#FFFFFF" transform="translate(0,0)"/>
<path d="" fill="#FFFFFF" transform="translate(0,0)"/>
<path d="" fill="#FFFFFF" transform="translate(0,0)"/>
<path d="" fill="#FFFFFF" transform="translate(0,0)"/>
<path d="" fill="#FFFFFF" transform="translate(0,0)"/>
<path d="" fill="#FFFFFF" transform="translate(0,0)"/>
<path d="" fill="#FFFFFF" transform="translate(0,0)"/>
<path d="" fill="#FFFFFF" transform="translate(0,0)"/>
<path d="" fill="#FFFFFF" transform="translate(0,0)"/>
<path d="" fill="#FFFFFF" transform="translate(0,0)"/>
</svg>
